<?xml version="1.0" encoding="utf-8"?>
<!-- Generator: Adobe Illustrator 23.0.2, SVG Export Plug-In . SVG Version: 6.00 Build 0)  -->
<svg version="1.1" id="Layer_5" xmlns="http://www.w3.org/2000/svg" xmlns:xlink="http://www.w3.org/1999/xlink" x="0px" y="0px"
	 viewBox="0 0 300 300" style="enable-background:new 0 0 300 300;" xml:space="preserve">
<style type="text/css">
	.st0{fill:#EFEFEF;}
	.st1{fill:#1C1C1C;}
	.st2{font-family:'Gilroy-Medium';}
	.st3{font-size:60px;}
	.st4{fill-rule:evenodd;clip-rule:evenodd;fill:#0073B0;}
	.st5{fill:url(#instagram_1_);}
	.st6{fill:#3B579D;}
	.st7{fill:#36CCFE;}
  #BG{
		animation-name: open;
		animation-duration: 0.5s;
	}
  #facebook{
		animation-name: show;
		animation-duration: 1s;
	}
	@keyframes open{
		0%{
			transform: scaley(0);
		}
		100%{
			transform: scaley(1);
		}
	}@keyframes show{
		0%{
			opacity: 0;
		}
		100%{
			opcaity: 1;
		}
	}
</style>
<g id="BG">
	<path class="st0" d="M275,300H25c-13.8,0-25-11.2-25-25V25C0,11.2,11.2,0,25,0h250c13.8,0,25,11.2,25,25v250
		C300,288.8,288.8,300,275,300z"/>
</g>
  <path id="facebook" class="st6" d="M53.3,138.2v3.2c0,0.2-0.1,0.3-0.3,0.3H39.3v6.5h11.3c0.2,0,0.3,0.1,0.3,0.3v3.2
  	c0,0.2-0.1,0.3-0.3,0.3H39.3v9.7c0,0.2-0.1,0.3-0.3,0.3h-3.5c-0.2,0-0.3-0.1-0.3-0.3v-23.6c0-0.2,0.1-0.3,0.3-0.3H53
  	C53.2,137.8,53.3,137.9,53.3,138.2z M81.7,161.8c0.1,0.3-0.1,0.4-0.3,0.4h-3.8c-0.2,0-0.3-0.1-0.4-0.3c-0.5-2-1.1-4.1-1.8-6.2H63.8
  	c-0.7,2.1-1.3,4.2-1.8,6.2c-0.1,0.2-0.2,0.3-0.4,0.3h-3.6c-0.3,0-0.4-0.1-0.3-0.4c2.2-7.7,5.5-16.3,8.9-23.5
  	c0.2-0.3,0.3-0.4,0.7-0.4h4.9c0.3,0,0.5,0.1,0.7,0.4C76.2,145.4,79.5,154,81.7,161.8z M74.1,151.9c-1.3-3.5-2.7-7-4.1-10.2h-0.8
  	c-1.4,3.2-2.9,6.7-4.1,10.2H74.1z M100.2,137.4h-0.5c-7.1,0-12.1,5.3-12.1,12.8c0,7.4,4.8,12.4,12,12.4h0.5c4.2,0,7.7-1.7,9.7-4.5
  	c0.1-0.1,0.1-0.2,0.1-0.3s-0.1-0.2-0.2-0.3l-3.1-1.5c-0.2-0.1-0.4-0.1-0.6,0.1c-1.3,1.5-3,2.5-5.9,2.5h-0.5c-4.5,0-7.6-3.5-7.6-8.6
  	s3.1-8.7,7.6-8.7h0.5c2.8,0,4.8,1.2,6.1,3.4c0.1,0.3,0.4,0.3,0.6,0.2l3.1-1.5c0.2-0.1,0.2-0.3,0.1-0.5
  	C108.1,139.7,104.7,137.4,100.2,137.4z M137.3,158.3h-14.5v-6.4h11.5c0.2,0,0.3-0.1,0.3-0.3v-3.2c0-0.2-0.1-0.3-0.3-0.3h-11.5v-6.3
  	H137c0.2,0,0.3-0.1,0.3-0.3v-3.2c0-0.2-0.1-0.3-0.3-0.3H119c-0.2,0-0.3,0.1-0.3,0.3v23.6c0,0.2,0.1,0.3,0.3,0.3h18.3
  	c0.2,0,0.3-0.1,0.3-0.3v-3.2C137.6,158.4,137.5,158.3,137.3,158.3z M169.1,155.5c0,4.3-3.3,6.7-9,6.7h-12c-0.2,0-0.3-0.1-0.3-0.3
  	v-23.7c0-0.2,0.1-0.3,0.3-0.3H159c5.6,0,8.7,2.2,8.7,6.3c0,2.7-1.3,4.4-4.1,5.2C167.4,150.2,169.1,152.5,169.1,155.5z M151.9,148.1
  	h7c3.1,0,4.6-1,4.6-3.3c0-2.2-1.4-3.3-4.6-3.3h-7V148.1z M164.8,155.1c0-2.3-1.5-3.3-4.8-3.3h-8.2v6.5h8.2
  	C163.4,158.4,164.8,157.4,164.8,155.1z M201.9,150c0,7.3-4.9,12.6-12.5,12.6h-0.5c-7.6,0-12.5-5.3-12.5-12.6
  	c0-7.3,4.9-12.6,12.5-12.6h0.5C197.1,137.4,201.9,142.6,201.9,150z M197.6,150c0-5.3-3.1-8.7-8.1-8.7h-0.5c-5,0-8.1,3.4-8.1,8.7
  	c0,5.2,3.1,8.7,8.1,8.7h0.5C194.4,158.7,197.6,155.2,197.6,150z M234.6,150c0,7.3-4.9,12.6-12.5,12.6h-0.5
  	c-7.6,0-12.5-5.3-12.5-12.6c0-7.3,4.9-12.6,12.5-12.6h0.5C229.7,137.4,234.6,142.6,234.6,150z M230.2,150c0-5.3-3.1-8.7-8.1-8.7
  	h-0.5c-5,0-8.1,3.4-8.1,8.7c0,5.2,3.1,8.7,8.1,8.7h0.5C227,158.7,230.2,155.2,230.2,150z M264.8,161.7c-3.7-4.4-7.8-8.5-12.1-12.1
  	c3.4-2.9,7.1-6.7,10.9-11.3c0.1-0.1,0.1-0.2,0.1-0.3c0-0.1-0.1-0.3-0.3-0.3h-4.2c-0.2,0-0.4,0-0.5,0.3c-2.6,3.3-5.7,6.6-9.1,9.7h-2
  	v-9.6c0-0.2-0.1-0.3-0.3-0.3h-3.5c-0.2,0-0.3,0.1-0.3,0.3v23.6c0,0.2,0.1,0.3,0.3,0.3h3.5c0.2,0,0.3-0.1,0.3-0.3v-10.1h2
  	c3.2,2.7,6.9,6.4,10.1,10.1c0.2,0.3,0.3,0.3,0.6,0.3h4.5C264.9,162.2,265,161.9,264.8,161.7z"/>
</svg>
