<?xml version="1.0" encoding="utf-8"?>
<!-- Generator: Adobe Illustrator 23.0.2, SVG Export Plug-In . SVG Version: 6.00 Build 0)  -->
<svg version="1.1" id="Layer_5" xmlns="http://www.w3.org/2000/svg" xmlns:xlink="http://www.w3.org/1999/xlink" x="0px" y="0px"
	 viewBox="0 0 300 300" style="enable-background:new 0 0 300 300;" xml:space="preserve">
	<style type="text/css">
		.st0{fill:#EFEFEF;}
		.st1{fill:#1C1C1C;}
		.st2{font-family:'Gilroy-Medium';}
		.st3{font-size:60px;}
		.st4{fill-rule:evenodd;clip-rule:evenodd;fill:#0073B0;}
		.st5{fill:url(#instagram_1_);}
		.st6{fill:#3B579D;}
		.st7{fill:#36CCFE;}
		#BG{
			animation-name: open;
			animation-duration: 0.5s;
		}
		#instagram{
			animation-name: show;
			animation-duration: 1s;
		}
		@keyframes open{
			0%{
				transform: scaley(0);
			}
			100%{
				transform: scaley(1);
			}
		}@keyframes show{
			0%{
				opacity: 0;
			}
			100%{
				opcaity: 1;
			}
		}
	</style>
	<g id="BG">
		<path class="st0" d="M275,300H25c-13.8,0-25-11.2-25-25V25C0,11.2,11.2,0,25,0h250c13.8,0,25,11.2,25,25v250
			C300,288.8,288.8,300,275,300z"/>
	</g>
	<linearGradient id="instagram_1_" gradientUnits="userSpaceOnUse" x1="34.808" y1="160" x2="265.192" y2="160">
		<stop  offset="5.000000e-02" style="stop-color:#FFD221"/>
		<stop  offset="0.5011" style="stop-color:#F20000"/>
		<stop  offset="0.95" style="stop-color:#B600B1"/>
	</linearGradient>
	<path id="instagram" class="st5" d="M214.1,157.1c-0.2,3.3-0.9,5.8-1.8,7.7c-1.7,3.5-5.4,4.6-6.9-0.4c-0.8-2.8-0.9-7.3-0.3-11.2
		c0.6-3.9,2.3-6.8,5.2-6.6C213.1,146.8,214.4,150.4,214.1,157.1 M166.9,177.5c0,5.5-0.9,10.2-2.7,11.6c-2.6,2-6.1,0.5-5.4-3.5
		c0.6-3.5,3.7-7.1,8.1-11.5C166.9,174.1,166.9,175.1,166.9,177.5 M166.2,157.1c-0.2,3-0.9,6-1.8,7.7c-1.7,3.5-5.4,4.6-6.9-0.4
		c-1-3.5-0.8-7.9-0.3-10.7c0.7-3.7,2.3-7,5.2-7C165.2,146.6,166.6,149.7,166.2,157.1 M138.9,157c-0.2,3.2-0.8,5.8-1.8,7.7
		c-1.8,3.5-5.4,4.6-6.9-0.4c-1.1-3.6-0.8-8.6-0.3-11.3c0.7-4,2.4-6.8,5.2-6.5C137.9,146.8,139.2,150.4,138.9,157 M264.2,160.7
		c-0.7,0-1,0.7-1.3,1.9c-0.9,4.1-1.8,5.1-3,5.1c-1.4,0-2.6-2-2.9-6.1c-0.2-3.2-0.2-9.1,0.1-15c0.1-1.2-0.3-2.4-3.5-3.6
		c-1.4-0.5-3.4-1.3-4.4,1.2c-2.9,6.9-4,12.4-4.2,14.6c0,0.1-0.1,0.1-0.2-0.1c-0.2-1.8-0.5-5-0.6-11.8c0-1.3-0.3-2.5-1.8-3.4
		c-0.9-0.6-3.8-1.7-4.9-0.4c-0.9,1-1.9,3.8-3,7.1c-0.9,2.7-1.5,4.5-1.5,4.5s0-7.2,0-10c0-1-0.7-1.4-0.9-1.4c-1-0.3-2.9-0.7-3.7-0.7
		c-1,0-1.2,0.6-1.2,1.4c0,0.1-0.2,9.5-0.2,16.1v0.9c-0.5,3-2.3,7.1-4.3,7.1c-1.9,0-2.9-1.7-2.9-9.6c0-4.6,0.1-6.6,0.2-9.9
		c0-1.9,0.1-3.4,0.1-3.7c0-1-1.8-1.5-2.6-1.7c-0.8-0.2-1.5-0.3-2.1-0.2c-0.8,0-1.3,0.6-1.3,1.3v1.1c-1-1.6-2.6-2.7-3.7-3
		c-2.9-0.9-6-0.1-8.3,3.1c-1.8,2.6-2.9,5.5-3.4,9.7c-0.3,3.1-0.2,6.2,0.4,8.8c-0.7,3-2,4.2-3.3,4.2c-2,0-3.5-3.3-3.3-9
		c0.1-3.7,0.9-6.4,1.7-10.2c0.4-1.6,0.1-2.5-0.7-3.3c-0.7-0.7-2-1.1-4-0.7c-1.4,0.3-3.5,0.7-5.3,1c0,0,0.1-0.4,0.2-1.2
		c0.5-4.1-4-3.8-5.5-2.5c-0.9,0.8-1.4,1.7-1.7,3.4c-0.4,2.7,1.8,3.9,1.8,3.9c-0.7,3.3-2.5,7.5-4.3,10.6c-1,1.7-1.7,2.9-2.7,4.2
		c0-0.5,0-1,0-1.4c0-6.9,0.1-12.3,0.1-14.2c0-1.9,0.1-3.3,0.1-3.7c0-0.7-0.4-1-1.4-1.4c-0.8-0.3-1.7-0.5-2.7-0.6
		c-1.2-0.1-2,0.6-2,1.3v1c-1-1.6-2.7-2.7-3.7-3c-2.9-0.9-6-0.1-8.3,3.1c-1.8,2.6-3,6.2-3.4,9.6c-0.3,3.2-0.3,6,0.2,8.3
		c-0.5,2.3-1.8,4.7-3.3,4.7c-1.9,0-3-1.7-3-9.6c0-4.6,0.1-6.6,0.2-9.9c0-1.9,0.1-3.4,0.1-3.7c0-1-1.8-1.5-2.6-1.7
		c-0.9-0.2-1.6-0.3-2.2-0.2c-0.8,0.1-1.3,0.7-1.3,1.2v1.1c-1-1.6-2.7-2.7-3.7-3c-2.9-0.9-6-0.1-8.3,3.1c-1.5,2.1-2.8,4.4-3.4,9.6
		c-0.2,1.5-0.3,2.9-0.3,4.2c-0.6,3.7-3.3,8-5.5,8c-1.3,0-2.5-2.5-2.5-7.8c0-7,0.4-17.1,0.5-18c0,0,2.8,0,3.3-0.1c1.4,0,2.6,0,4.5-0.1
		c0.9,0,1.8-3.3,0.9-3.8c-0.4-0.2-3.5-0.3-4.7-0.4c-1,0-3.8-0.2-3.8-0.2s0.3-6.7,0.3-7.4c0-0.6-0.7-0.9-1.1-1.1
		c-1.1-0.5-2-0.7-3.1-0.9c-1.6-0.3-2.3,0-2.4,1.3c-0.2,2-0.3,7.8-0.3,7.8c-1.1,0-5-0.2-6.2-0.2c-1.1,0-2.2,4.5-0.7,4.6
		c1.7,0.1,4.6,0.1,6.6,0.2c0,0-0.1,10.2-0.1,13.3v1c-1.1,5.6-4.8,8.6-4.8,8.6c0.8-3.7-0.8-6.5-3.8-8.8c-1.1-0.9-3.3-2.5-5.7-4.3
		c0,0,1.4-1.4,2.6-4.2c0.9-2,0.9-4.2-1.2-4.7c-3.6-0.8-6.5,1.8-7.4,4.6c-0.7,2.2-0.3,3.8,1,5.4c0.1,0.1,0.2,0.2,0.3,0.4
		c-0.8,1.6-1.9,3.6-2.8,5.3c-2.6,4.5-4.6,8.1-6.1,8.1c-1.2,0-1.2-3.6-1.2-7c0-2.9,0.2-7.3,0.4-11.9c0.1-1.5-0.7-2.4-2-3.1
		c-0.8-0.5-2.4-1.4-3.3-1.4c-1.4,0-5.5,0.2-9.4,11.4c-0.5,1.4-1.4,4-1.4,4l0.1-13.4c0-0.3-0.2-0.6-0.5-0.8c-0.7-0.4-2.4-1.1-3.9-1.1
		c-0.7,0-1.1,0.3-1.1,1l-0.1,21c0,1.6,0,3.5,0.2,4.3c0.2,0.8,0.4,1.5,0.7,1.9c0.3,0.4,0.7,0.7,1.3,0.8c0.6,0.1,3.6,0.5,3.8-0.7
		c0.2-1.4,0.2-2.9,1.8-8.6c2.5-8.8,5.8-13.1,7.3-14.6c0.3-0.3,0.6-0.3,0.6,0.2c-0.1,1.9-0.3,6.8-0.5,10.9c-0.4,11,1.6,13,4.4,13
		c2.2,0,5.3-2.2,8.5-7.7c2.1-3.4,4.1-6.8,5.5-9.2c1,0.9,2.1,1.9,3.2,3c2.6,2.5,3.5,4.8,2.9,7c-0.4,1.7-2.1,3.5-5,1.8
		c-0.8-0.5-1.2-0.9-2.1-1.4c-0.5-0.3-1.2-0.4-1.6-0.1c-1.1,0.8-1.7,1.9-2.1,3.2c-0.3,1.3,0.9,1.9,2.2,2.5c1.1,0.5,3.5,1,5.1,1
		c6,0.2,10.8-2.9,14.2-10.9c0.6,6.9,3.1,10.8,7.6,10.8c3,0,5.9-3.8,7.2-7.6c0.4,1.5,0.9,2.9,1.6,4c3.4,5.4,10,4.2,13.4-0.3
		c1-1.4,1.2-1.9,1.2-1.9c0.5,4.3,4,5.9,6,5.9c2.2,0,4.6-1.1,6.2-4.7c0.2,0.4,0.4,0.8,0.6,1.1c3.4,5.4,10,4.2,13.4-0.3
		c0.1-0.2,0.3-0.4,0.4-0.6l0.1,2.9c0,0-1.9,1.7-3.1,2.8c-5.1,4.7-9,8.3-9.3,12.4c-0.4,5.3,3.9,7.3,7.2,7.5c3.4,0.3,6.4-1.6,8.2-4.3
		c1.6-2.4,2.6-7.4,2.6-12.4c0-2-0.1-4.5-0.1-7.3c1.8-2.1,3.8-4.7,5.7-7.8c2-3.4,4.2-7.9,5.3-11.4c0,0,1.9,0,3.9-0.1
		c0.7,0,0.8,0.1,0.7,0.6c-0.1,0.6-2.6,9.9-0.4,16.1c1.5,4.2,4.9,5.6,6.9,5.6c2.4,0,4.6-1.8,5.8-4.4c0.1,0.3,0.3,0.6,0.5,0.8
		c3.4,5.4,10,4.2,13.4-0.3c0.8-1,1.2-1.9,1.2-1.9c0.7,4.5,4.2,5.9,6.2,5.9c2.1,0,4.1-0.9,5.7-4.6c0.1,1.7,0.2,3,0.3,3.5
		c0.1,0.3,0.7,0.6,1.1,0.8c1.9,0.7,3.9,0.4,4.6,0.2c0.5-0.1,0.9-0.5,0.9-1.5c0.1-2.7,0.1-7.3,0.9-10.7c1.4-5.7,2.7-7.9,3.3-9
		c0.3-0.6,0.7-0.7,0.7-0.1c0,1.3,0.1,5.1,0.6,10.3c0.4,3.8,0.9,6,1.3,6.8c1.1,2,2.6,2.1,3.7,2.1c0.7,0,2.3-0.2,2.1-1.5
		c-0.1-0.6,0-4.5,1.4-10.1c0.9-3.7,2.4-7,2.9-8.2c0.2-0.4,0.3-0.1,0.3,0c-0.1,2.5-0.4,10.8,0.7,15.2c1.4,6.1,5.4,6.8,6.8,6.8
		c3,0,5.4-2.3,6.3-8.3C265.3,161.9,265,160.7,264.2,160.7 M46.7,127.5c-4.7,2-9.9,7.5-11.5,14.6c-2.1,8.9,6.6,12.6,7.3,11.4
		c0.8-1.4-1.6-1.9-2-6.5c-0.6-5.9,2.1-12.6,5.6-15.5c0.7-0.5,0.6,0.2,0.6,1.6c0,2.5-0.1,24.9-0.1,29.5c0,6.3-0.3,8.3-0.7,10.3
		c-0.5,2-1.2,3.3-0.7,3.9c0.7,0.6,3.4-0.8,5-3c1.9-2.7,2.6-5.9,2.7-9.4c0.1-4.2,0.1-10.9,0.1-14.7c0-3.5,0.1-13.7-0.1-19.9
		C52.8,128.3,48.6,126.7,46.7,127.5"/>
</svg>
