<?xml version="1.0" encoding="utf-8"?>
<!-- Generator: Adobe Illustrator 23.0.2, SVG Export Plug-In . SVG Version: 6.00 Build 0)  -->
<svg version="1.1" id="Layer_5" xmlns="http://www.w3.org/2000/svg" xmlns:xlink="http://www.w3.org/1999/xlink" x="0px" y="0px"
	 viewBox="0 0 300 300" style="enable-background:new 0 0 300 300;" xml:space="preserve">
	<style type="text/css">
		.st0{fill:#EFEFEF;}
		.st1{fill:#1C1C1C;}
		.st2{font-family:'Gilroy-Medium';}
		.st3{font-size:60px;}
		.st4{fill-rule:evenodd;clip-rule:evenodd;fill:#0073B0;}
		.st5{fill:url(#instagram_1_);}
		.st6{fill:#3B579D;}
		.st7{fill:#36CCFE;}
		#BG{
			animation-name: open;
			animation-duration: 0.5s;
		}
		#linkedin{
			animation-name: show;
			animation-duration: 1s;
		}
		@keyframes open{
			0%{
				transform: scaley(0);
			}
			100%{
				transform: scaley(1);
			}
		}@keyframes show{
			0%{
				opacity: 0;
			}
			100%{
				opcaity: 1;
			}
		}
	</style>
	<g id="BG">
		<path class="st0" d="M275,300H25c-13.8,0-25-11.2-25-25V25C0,11.2,11.2,0,25,0h250c13.8,0,25,11.2,25,25v250
			C300,288.8,288.8,300,275,300z"/>
	</g>
	<path id="linkedin" class="st4" d="M211.1,178.6h47.8c2.6,0,4.7-2.1,4.7-4.7v-47.8c0-2.6-2.1-4.7-4.7-4.7h-47.8
		c-2.6,0-4.7,2.1-4.7,4.7v47.8C206.4,176.5,208.5,178.6,211.1,178.6z M228.3,143.3h8v4c1.1-2.1,4.2-4.4,8.3-4.4
		c7.9,0,10.6,3.6,10.6,12.1v15.3h-8.4v-13.5c0-4.5-0.9-6.9-4.1-6.9c-4.4,0-6,3.4-6,6.9v13.5h-8.4L228.3,143.3L228.3,143.3z
		 M214.8,170.2h8.4v-26.9h-8.4V170.2z M224.1,134c0,2.8-2.3,5.1-5.1,5.1s-5.1-2.3-5.1-5.1c0-2.8,2.3-5.1,5.1-5.1
		S224.1,131.2,224.1,134z M189.6,129.8v16.5c-1.4-2-3.6-3.4-7.6-3.4c-8.1,0-12.6,5.8-12.6,13.9c0,8.1,4.3,13.9,13.5,13.9
		c3.8,0,6.8-2.1,7.7-3.5h0.1v3h7.3v-40.4H189.6z M183.6,164.1c-3.9,0-6.1-2.8-6.1-7.2c0-4.4,2.3-7.6,6.1-7.6c3.9,0,6.3,3.2,6.3,7.6
		C189.9,161.4,187.5,164.1,183.6,164.1z M128.3,156.1l12,14.1h-9.8l-10-12.4v12.4h-8.4v-40.4h8.4v24.5l9.4-11h10.2L128.3,156.1z
		 M44.8,161.8h16.8v8.4H36.4v-40.4h8.4V161.8z M166.2,156.9c0-8.6-5.4-14-13.1-14c-9.1,0-14.3,6.1-14.3,13.5
		c0,8.7,5.3,14.3,13.7,14.3c6.1,0,10.4-2.2,12.5-4.9l-5.1-4c-1.2,1.4-3.9,3-7,3c-3.5,0-5.6-2.1-6.2-4.3l-0.1-0.4h19.2
		C165.8,160.1,166.2,158.6,166.2,156.9z M146.5,153.8c0.2-2.6,2.7-5.1,6.4-5.1c3.1,0,5.5,2.3,5.8,5.1H146.5z M66.7,143.3h8.4v26.9
		h-8.4V143.3z M75.7,134.9c0,2.5-2.3,4.8-4.8,4.8c-2.5,0-4.8-2.3-4.8-4.8c0-2.6,2.3-4.8,4.8-4.8C73.5,130,75.7,132.3,75.7,134.9z
		 M107.1,155.1v15.1h-8.4v-13.3c0-3.2-0.2-7.3-4.5-7.3c-4.4,0-5.6,3.7-5.6,7.3v13.3h-8.4v-26.9h7.3v3.8h0.1c1.1-2.2,4.6-4.2,8.8-4.2
		C104.9,142.8,107.1,147.7,107.1,155.1z"/>
</svg>
