<?xml version="1.0" encoding="utf-8"?>
<!-- Generator: Adobe Illustrator 23.0.2, SVG Export Plug-In . SVG Version: 6.00 Build 0)  -->
<svg version="1.1" id="Layer_5" xmlns="http://www.w3.org/2000/svg" xmlns:xlink="http://www.w3.org/1999/xlink" x="0px" y="0px"
	 viewBox="0 0 300 300" style="enable-background:new 0 0 300 300;" xml:space="preserve">
<style type="text/css">
	.st0{fill:#EFEFEF;}
	.st1{fill:#1C1C1C;}
	#BG{
		animation-name: open;
		animation-duration: 0.5s;
	}
	.st1{
		animation-name: show;
		animation-duration: 1s;
	}
	@keyframes open{
		0%{
			transform: scaley(0);
		}
		100%{
			transform: scaley(1);
		}
	}@keyframes show{
		0%{
			opacity: 0;
		}
		100%{
			opcaity: 1;
		}
	}
</style>
<g id="BG">
	<path class="st0" d="M275,300H25c-13.8,0-25-11.2-25-25V25C0,11.2,11.2,0,25,0h250c13.8,0,25,11.2,25,25v250
		C300,288.8,288.8,300,275,300z"/>
</g>
<path class="st1" d="M53.9,129.5H38.6v42h5.6v-15h9.7c3.9,0,7.1-1.3,9.7-3.9c2.6-2.6,3.9-5.8,3.9-9.6c0-3.8-1.3-7.1-3.9-9.6
	C61,130.8,57.7,129.5,53.9,129.5z M59.6,148.9c-1.5,1.6-3.4,2.4-5.7,2.4h-9.7v-16.6h9.7c2.3,0,4.2,0.8,5.8,2.3
	c1.5,1.6,2.3,3.5,2.3,5.9C61.9,145.4,61.1,147.4,59.6,148.9z M95.5,142.8c-2.4-1.4-5.1-2.1-8-2.1s-5.5,0.7-7.9,2.1
	c-2.4,1.4-4.3,3.3-5.7,5.7c-1.4,2.4-2.1,5.1-2.1,8s0.7,5.6,2.1,8c1.4,2.4,3.3,4.3,5.7,5.7c2.4,1.4,5.1,2.1,7.9,2.1s5.5-0.7,8-2.1
	s4.4-3.3,5.8-5.7c1.4-2.4,2.1-5.1,2.1-8s-0.7-5.6-2.1-8C99.9,146.1,98,144.2,95.5,142.8z M95.1,164.1c-2,2.1-4.6,3.1-7.6,3.1
	c-3,0-5.5-1-7.5-3.1c-2-2.1-3-4.6-3-7.6s1-5.6,3-7.6c2-2.1,4.5-3.1,7.5-3.1c3,0,5.5,1,7.6,3.1c2,2.1,3.1,4.6,3.1,7.6
	S97.2,162.1,95.1,164.1z M124.2,141v5.4c-1.2,0-2.3,0.1-3.4,0.4c-1.1,0.3-2.1,0.8-3,1.5c-0.9,0.7-1.7,1.6-2.2,2.9
	c-0.5,1.3-0.8,2.7-0.8,4.4v15.9h-5.2v-30h5.2v5C116.5,142.8,119.6,141,124.2,141z M137.6,141.5h8v5h-8v16.3c0,1.5,0.3,2.5,0.9,3.1
	s1.5,0.9,2.7,1c1.2,0,2.7,0,4.4-0.1v4.7c-4.6,0.6-7.9,0.2-10-1.1c-2.1-1.3-3.2-3.9-3.2-7.6v-16.3h-5.9v-5h5.9v-6.8l5.2-1.6V141.5z
	 M167.3,128.7v5c-2.7-0.2-4.6,0.2-6,1.3s-2,2.9-2,5.5v0.9h7.9v5h-7.9v25h-5.2v-25h-4.8v-5h4.8v-0.9c0-4,1.1-7.1,3.4-9.2
	C159.9,129.3,163.1,128.4,167.3,128.7z M193.3,142.8c-2.4-1.4-5.1-2.1-8-2.1s-5.5,0.7-7.9,2.1c-2.4,1.4-4.3,3.3-5.7,5.7
	c-1.4,2.4-2.1,5.1-2.1,8s0.7,5.6,2.1,8c1.4,2.4,3.3,4.3,5.7,5.7c2.4,1.4,5.1,2.1,7.9,2.1s5.5-0.7,8-2.1s4.4-3.3,5.8-5.7
	c1.4-2.4,2.1-5.1,2.1-8s-0.7-5.6-2.1-8C197.7,146.1,195.7,144.2,193.3,142.8z M192.9,164.1c-2,2.1-4.6,3.1-7.6,3.1
	c-3,0-5.5-1-7.5-3.1c-2-2.1-3-4.6-3-7.6s1-5.6,3-7.6c2-2.1,4.5-3.1,7.5-3.1c3,0,5.5,1,7.6,3.1c2,2.1,3.1,4.6,3.1,7.6
	S195,162.1,192.9,164.1z M207.4,127.7h5.2v43.8h-5.2V127.7z M225.6,130.1c0.7,0.7,1,1.5,1,2.5c0,1-0.3,1.8-1,2.5
	c-0.7,0.7-1.5,1-2.5,1c-1,0-1.8-0.3-2.5-1c-0.7-0.7-1-1.5-1-2.5s0.3-1.8,1-2.5c0.7-0.7,1.5-1,2.5-1C224.1,129,225,129.4,225.6,130.1
	z M220.5,141.5h5.2v30h-5.2V141.5z M261.5,148.5c-1.4-2.4-3.3-4.3-5.8-5.7s-5.1-2.1-8-2.1s-5.5,0.7-7.9,2.1
	c-2.4,1.4-4.3,3.3-5.7,5.7c-1.4,2.4-2.1,5.1-2.1,8s0.7,5.6,2.1,8c1.4,2.4,3.3,4.3,5.7,5.7c2.4,1.4,5.1,2.1,7.9,2.1s5.5-0.7,8-2.1
	s4.4-3.3,5.8-5.7c1.4-2.4,2.1-5.1,2.1-8S263,150.9,261.5,148.5z M255.4,164.1c-2,2.1-4.6,3.1-7.6,3.1c-3,0-5.5-1-7.5-3.1
	c-2-2.1-3-4.6-3-7.6s1-5.6,3-7.6c2-2.1,4.5-3.1,7.5-3.1c3,0,5.5,1,7.6,3.1c2,2.1,3.1,4.6,3.1,7.6S257.4,162.1,255.4,164.1z"/>
</svg>
