<?xml version="1.0" encoding="utf-8"?>
<!-- Generator: Adobe Illustrator 23.0.2, SVG Export Plug-In . SVG Version: 6.00 Build 0)  -->
<svg version="1.1" id="Layer_5" xmlns="http://www.w3.org/2000/svg" xmlns:xlink="http://www.w3.org/1999/xlink" x="0px" y="0px"
	 viewBox="0 0 300 300" style="enable-background:new 0 0 300 300;" xml:space="preserve">
	<style type="text/css">
		.st0{fill:#EFEFEF;}
		.st1{fill:#1C1C1C;}
		.st2{font-family:'Gilroy-Medium';}
		.st3{font-size:60px;}
		.st4{fill-rule:evenodd;clip-rule:evenodd;fill:#0073B0;}
		.st5{fill:url(#instagram_1_);}
		.st6{fill:#3B579D;}
		.st7{fill:#36CCFE;}
		#BG{
			animation-name: open;
			animation-duration: 0.5s;
		}
		#twitter{
			animation-name: show;
			animation-duration: 1s;
		}
		@keyframes open{
			0%{
				transform: scaley(0);
			}
			100%{
				transform: scaley(1);
			}
		}@keyframes show{
			0%{
				opacity: 0;
			}
			100%{
				opcaity: 1;
			}
		}
	</style>
	<g id="BG">
		<path class="st0" d="M275,300H25c-13.8,0-25-11.2-25-25V25C0,11.2,11.2,0,25,0h250c13.8,0,25,11.2,25,25v250
			C300,288.8,288.8,300,275,300z"/>
	</g>
	<path id="twitter" class="st7" d="M122.8,146c0.2,4.8,0.7,9.7-0.4,14.4c-2.4,10.1-13,15-22.3,10.3c-1.7-0.9-3-1.9-5.4-0.7
		c-12.4,6.3-23.7-0.9-23.7-14.9c0-1,0-2,0-3c0,0,0,0,0,0c0-2-0.1-4,0-6c0.2-3.1,2.1-5,5.1-5.1c3.1-0.2,5.1,1.7,5.4,4.8
		c0.3,3.3,0.2,6.6,0.2,10c0,3.5,1.2,6.1,5,6.1c3.8,0,4.9-2.7,5-6.1c0-3.3,0.1-6.7,0.4-10c0.2-3.2,2.3-4.9,5.3-4.8
		c3,0.2,4.8,2.1,4.9,5.3c0,3.2,0,6.3,0,9.5c0,3.4,1.3,6,5,6.1c3.8,0.1,5.2-2.4,5.1-5.9c0-3.2-0.1-6.3,0.1-9.5c0.2-3.3,2-5.4,5.3-5.5
		C120.7,141,122.7,143.1,122.8,146z M62.9,162.2c-3,0.8-6.3,0.6-9.4,0.1c-3.5-0.5-5.9-2.8-6.4-6.5c-0.3-2.3,0.2-3.8,3.1-3.7
		c4,0.2,8,0.1,12,0c3.2-0.1,5.7-1.6,5.7-5c0-3.6-2.4-5.3-5.8-5.4c-3.3-0.1-6.7-0.2-10,0c-3.7,0.3-5.8-0.6-5-4.8c0.1-0.8,0-1.7,0-2.5
		c0-3.8-1.8-6-5.7-6c-3.7,0.1-5.3,2.4-5.3,5.9c-0.1,3.8,0,7.7,0,11.5c0,3.3,0,6.7,0,10c0.1,7.8,4.5,13.9,11.9,16
		c5.5,1.6,11.3,0.9,16.9,0.5c3.1-0.2,4.9-3,4.2-6.3C68.3,163,66.8,161.2,62.9,162.2z M232.1,150.8c2.3,6,0.4,8.8-6,8.9
		c-1.8,0-3.7,0-5.5,0c-2.3,0-4.7,0-7,0c-0.9,0-2.3-0.4-2.4,1c-0.1,1.1,1,1.6,1.9,2c2.9,1.3,5.9,0.6,8.9,0.7c1.8,0.1,3.7-0.1,5.5,0.1
		c2.7,0.3,4.3,2,4.2,4.7c-0.1,2.4-1.7,4.1-4.2,4.1c-5.1,0.1-10.4,0.5-15.4-0.3c-8-1.2-13.3-8.4-13-16.5c0.3-8.1,5.5-13.5,14.1-14.6
		C221.7,139.9,229.4,144,232.1,150.8z M219.6,149.9c-3.2-1.4-6.2-1.5-9.3,2.7c3.5,0,6,0,8.4,0c0.7,0,1.8,0.3,2.1-0.8
		C221.1,150.8,220.3,150.2,219.6,149.9z M191.4,161.4c-1.8,0-3.7,0.1-5.4-0.4c-3.2-0.9-4.3-3.4-4-6.6c0.3-3.7,3.2-2,5-2.3
		c1.8-0.3,3.7,0.1,5.4-0.3c3.4-0.8,5.1-3.1,3.9-6.7c-1.1-3.3-3.9-3.6-6.9-3.6c-7.1,0-7.2-0.1-7.4-6.8c-0.1-3.9-1.7-6.5-5.9-6.4
		c-4.1,0.1-5.3,2.7-5.3,6.4c0,6.6,0,13.3,0,19.9c0.1,11.4,6.6,17.8,18.1,17.8c0.8,0,1.7,0,2.5,0c3.7,0.1,6.4-1.6,6.5-5.3
		C198,163.2,195.4,161.4,191.4,161.4z M162.9,162.4c-1,0.4-2.3,0.2-3.5,0.1c-3.6-0.3-6.5-3.8-6.4-7.4c0.1-4.9,3.8-2.3,5.9-2.8
		c1.6-0.4,3.3-0.2,4.9-0.5c2.5-0.4,3.7-2.3,3.9-4.6c0.1-2.3-1.1-4.3-3.4-4.9c-1.6-0.5-3.3-0.7-4.9-0.5c-5.1,0.7-7.4-1.1-6.4-6.4
		c0.1-0.3,0-0.7,0-1c-0.3-3.7-2-6-5.9-5.9c-3.7,0.1-5.2,2.4-5.2,5.9c0,3.7,0,7.3,0,11c0,3.2,0,6.3,0,9.5
		c0.1,12.5,10.3,20.6,22.5,17.7c3.1-0.7,5-3,4.4-6.2C168.2,163.3,166.8,160.8,162.9,162.4z M259.1,141.7
		c-13.8-1.6-24.5,3.5-23.1,19.9c0,1.7-0.2,4.1,0.1,6.4c0.3,2.9,2.2,4.5,5.1,4.4c2.8-0.1,4.6-1.7,4.9-4.7c0.1-1,0-2,0.1-3
		c0.1-11.9,0.1-11.9,11.6-12.6c0.5,0,1,0,1.5-0.1c2.8-0.5,4.6-2,4.7-4.9C264.1,143.9,262.1,142.1,259.1,141.7z M132.4,141
		c-3.4,0-5.5,2-5.6,5.7c0,3.3,0,6.6,0,9.9s-0.1,6.6,0,9.9c0.1,3.5,1.8,5.8,5.4,5.8c3.6,0.1,5.5-2.3,5.6-5.7c0.2-6.8,0.2-13.6,0-20.4
		C137.7,143.2,135.6,141,132.4,141z M132.1,138.1c3.5,0.1,5.3-2.1,5.9-5.7c-0.6-3.1-2.3-5.5-5.8-5.4c-3.4,0.1-5.5,2.2-5.4,5.7
		C126.9,136,128.9,138,132.1,138.1z"/>
</svg>
